<svg xmlns="http://www.w3.org/2000/svg" viewBox="0 0 215.05 214.92"><defs><style>.cls-1{fill:#e30613;}.cls-2{fill:#fff;}</style></defs><g id="Слой_2" data-name="Слой 2"><g id="Слой_3" data-name="Слой 3"><path class="cls-1" d="M22,214.92a23.94,23.94,0,0,1-15.32-7.07A24,24,0,0,1,0,191.92v-169A22.71,22.71,0,0,1,6.69,6.13,22.45,22.45,0,0,1,22,0H193a22.42,22.42,0,0,1,15.69,6.39A22.52,22.52,0,0,1,215,22.91v169c0,1.42,0,10.72-7.57,17.4a23,23,0,0,1-14.48,5.6Z"/><path class="cls-2" d="M28.11,191.92h159A6.29,6.29,0,0,0,193,186.1V28.92a5.94,5.94,0,0,0-5.87-6h-159a6.13,6.13,0,0,0-4.3,1.71A6.21,6.21,0,0,0,22,28.92V186.1A6.67,6.67,0,0,0,24,190.19,6.6,6.6,0,0,0,28.11,191.92Z"/><path class="cls-1" d="M59.55,139.47a11.54,11.54,0,0,0,16.92,14.9l79.08-78.91a11.59,11.59,0,0,0-16-16Z"/><path class="cls-1" d="M139.54,154.37a11.2,11.2,0,0,0,16-14.9L76.47,59.41a11.88,11.88,0,0,0-16.92,16Z"/></g></g></svg>