<svg xmlns="http://www.w3.org/2000/svg" viewBox="0 0 214.74 214.95"><defs><style>.cls-1{fill:#62b231;}.cls-2{fill:#fff;}</style></defs><g id="Слой_2" data-name="Слой 2"><g id="Слой_2-2" data-name="Слой 2"><path class="cls-1" d="M0,22.94A23.49,23.49,0,0,1,6.92,6.49,23.29,23.29,0,0,1,22,0H192.05a22,22,0,0,1,16.44,6.21,22,22,0,0,1,6.21,16.7V192A24.66,24.66,0,0,1,207,208.69,24.39,24.39,0,0,1,192.05,215H22a22.39,22.39,0,0,1-14.65-5.5C-.24,202.73,0,193.27,0,192Z"/><path class="cls-2" d="M22,29,22,184a7.8,7.8,0,0,0,8,8H186a6.05,6.05,0,0,0,4.46-1.86,6,6,0,0,0,1.55-4.12V29a6,6,0,0,0-6-6h-158A6.22,6.22,0,0,0,22,29Z"/><path class="cls-1" d="M171.07,73.76,92,153.78a11,11,0,0,1-14.22,0l-33.71-35A10.86,10.86,0,0,1,59,105l25.54,24.65L155,59a11.81,11.81,0,0,1,16,14.77Z"/></g></g></svg>